<svg width="1024" height="1024" viewBox="0 0 1024 1024" fill="none" xmlns="http://www.w3.org/2000/svg">
<path d="M978.748 484C978.748 743.949 769.679 954.5 512 954.5C254.321 954.5 45.252 743.949 45.252 484C45.252 224.051 254.321 13.5 512 13.5C769.679 13.5 978.748 224.051 978.748 484Z" fill="#976EB7" stroke="black" stroke-width="27"/>
<ellipse cx="508.031" cy="488" rx="325.457" ry="328" fill="#5A5A5A"/>
<path d="M821.988 488C821.988 662.883 681.341 804.5 508.031 804.5C334.721 804.5 194.074 662.883 194.074 488C194.074 313.117 334.721 171.5 508.031 171.5C681.341 171.5 821.988 313.117 821.988 488Z" fill="#6D127C" stroke="black" stroke-width="23"/>
<mask id="path-4-inside-1_5546_86" fill="white">
<rect x="111.132" y="824" width="801.736" height="144" rx="8"/>
</mask>
<rect x="111.132" y="824" width="801.736" height="144" rx="8" fill="url(#paint0_linear_5546_86)" stroke="black" stroke-width="60" mask="url(#path-4-inside-1_5546_86)"/>
<mask id="path-5-inside-2_5546_86" fill="white">
<rect y="896" width="1024" height="128" rx="8"/>
</mask>
<rect y="896" width="1024" height="128" rx="8" fill="#6D127C" stroke="black" stroke-width="52" mask="url(#path-5-inside-2_5546_86)"/>
<mask id="mask0_5546_86" style="mask-type:alpha" maskUnits="userSpaceOnUse" x="182" y="160" width="652" height="656">
<ellipse cx="508.031" cy="488" rx="325.457" ry="328" fill="#D9D9D9"/>
</mask>
<g mask="url(#mask0_5546_86)">
<path fill-rule="evenodd" clip-rule="evenodd" d="M294.064 779.64C279.855 785.548 264.285 788.808 247.959 788.808C181.155 788.808 127 734.229 127 666.904C127 599.578 181.155 545 247.959 545C314.763 545 368.918 599.578 368.918 666.904C368.918 671.471 368.669 675.979 368.183 680.415C380.801 675.622 394.475 673 408.756 673C442.153 673 472.226 687.34 493.245 710.243C516.465 642.096 581.833 593 658.845 593C755.294 593 833.481 670.007 833.481 765C833.481 859.993 755.294 937 658.845 937C593.65 937 536.8 901.815 506.801 849.673C486.549 882.818 450.213 904.915 408.756 904.915C345.211 904.915 293.698 852.999 293.698 788.957C293.698 785.821 293.821 782.713 294.064 779.64Z" fill="#C6B1D6"/>
<path d="M294.064 779.64L310.513 780.937L312.634 754.048L287.728 764.404L294.064 779.64ZM368.183 680.415L351.781 678.621L348.85 705.409L374.042 695.84L368.183 680.415ZM493.245 710.243L481.088 721.4L499.893 741.891L508.863 715.565L493.245 710.243ZM506.801 849.673L521.103 841.444L507.228 817.327L492.721 841.07L506.801 849.673ZM247.959 805.308C266.499 805.308 284.22 801.603 300.399 794.875L287.728 764.404C275.49 769.493 262.07 772.308 247.959 772.308V805.308ZM110.5 666.904C110.5 743.221 171.922 805.308 247.959 805.308V772.308C190.389 772.308 143.5 725.238 143.5 666.904H110.5ZM247.959 528.5C171.922 528.5 110.5 590.587 110.5 666.904H143.5C143.5 608.57 190.389 561.5 247.959 561.5V528.5ZM385.418 666.904C385.418 590.587 323.996 528.5 247.959 528.5V561.5C305.529 561.5 352.418 608.57 352.418 666.904H385.418ZM384.585 682.21C385.136 677.178 385.418 672.071 385.418 666.904H352.418C352.418 670.87 352.201 674.779 351.781 678.621L384.585 682.21ZM374.042 695.84C384.819 691.746 396.509 689.5 408.756 689.5V656.5C392.44 656.5 376.783 659.498 362.324 664.991L374.042 695.84ZM408.756 689.5C437.319 689.5 463.048 701.742 481.088 721.4L505.402 699.087C481.405 672.938 446.987 656.5 408.756 656.5V689.5ZM658.845 576.5C574.692 576.5 503.098 630.166 477.627 704.922L508.863 715.565C529.831 654.027 588.975 609.5 658.845 609.5V576.5ZM849.981 765C849.981 660.659 764.169 576.5 658.845 576.5V609.5C746.418 609.5 816.981 679.355 816.981 765H849.981ZM658.845 953.5C764.169 953.5 849.981 869.341 849.981 765H816.981C816.981 850.645 746.418 920.5 658.845 920.5V953.5ZM492.499 857.901C525.365 915.026 587.593 953.5 658.845 953.5V920.5C599.707 920.5 548.235 888.603 521.103 841.444L492.499 857.901ZM492.721 841.07C475.32 869.55 444.188 888.415 408.756 888.415V921.415C456.238 921.415 497.779 896.085 520.881 858.275L492.721 841.07ZM408.756 888.415C354.445 888.415 310.198 844.007 310.198 788.957H277.198C277.198 861.99 335.978 921.415 408.756 921.415V888.415ZM310.198 788.957C310.198 786.254 310.304 783.58 310.513 780.937L277.615 778.342C277.338 781.847 277.198 785.387 277.198 788.957H310.198Z" fill="black"/>
</g>
<defs>
<linearGradient id="paint0_linear_5546_86" x1="512" y1="824" x2="512" y2="968" gradientUnits="userSpaceOnUse">
<stop stop-color="#6D127C"/>
<stop offset="1" stop-color="#7A2188"/>
</linearGradient>
</defs>
</svg>
